<svg width="59" height="59" viewBox="0 0 59 59" fill="none" xmlns="http://www.w3.org/2000/svg">
<g clip-path="url(#clip0_710_937)">
<path d="M29.5 0.103271C22.9951 0.110428 16.7587 2.69749 12.1588 7.29692C7.55887 11.8963 4.97119 18.1325 4.96338 24.6374C4.96338 30.9554 9.85546 40.8428 19.5044 54.0244C20.6531 55.598 22.1571 56.8782 23.894 57.7608C25.6309 58.6434 27.5517 59.1034 29.5 59.1034C31.4483 59.1034 33.3691 58.6434 35.106 57.7608C36.8429 56.8782 38.3469 55.598 39.4956 54.0244C49.1445 40.8428 54.0366 30.9554 54.0366 24.6374C54.0288 18.1325 51.4411 11.8963 46.8412 7.29692C42.2414 2.69749 36.0049 0.110428 29.5 0.103271ZM29.5 34.4167C27.5552 34.4167 25.654 33.84 24.0369 32.7595C22.4198 31.679 21.1595 30.1432 20.4152 28.3464C19.6709 26.5496 19.4762 24.5724 19.8556 22.665C20.235 20.7575 21.1716 19.0054 22.5468 17.6301C23.922 16.2549 25.6741 15.3184 27.5816 14.939C29.4891 14.5595 31.4663 14.7543 33.2631 15.4985C35.0599 16.2428 36.5956 17.5032 37.6761 19.1202C38.7566 20.7373 39.3333 22.6385 39.3333 24.5834C39.3333 27.1913 38.2973 29.6925 36.4532 31.5366C34.6091 33.3807 32.108 34.4167 29.5 34.4167Z" fill="black"/>
<circle cx="29" cy="22" r="14" fill="black"/>
<g clip-path="url(#clip1_710_937)">
<path d="M37.809 17.771C37.388 16.695 36.377 16 35.236 16H20.765C19.623 16 18.613 16.695 18.192 17.771C17.782 18.816 18.032 19.932 18.868 20.705L25.536 26.865C25.97 27.26 26.472 27.532 27.001 27.683V34H24.001C23.448 34 23.001 34.448 23.001 35C23.001 35.552 23.448 36 24.001 36H32.001C32.554 36 33.001 35.552 33.001 35C33.001 34.448 32.554 34 32.001 34H29.001V27.682C29.531 27.53 30.035 27.257 30.472 26.859L37.16 20.681C37.971 19.931 38.22 18.816 37.809 17.771ZM42 18C42 21.127 39.596 23.702 36.54 23.975L38.516 22.149C39.924 20.848 40.377 18.843 39.671 17.042C38.948 15.193 37.207 13.999 35.235 13.999H31.519C32.627 12.757 34.235 11.999 36 11.999C39.309 11.999 42 14.691 42 18Z" fill="white"/>
</g>
</g>
<defs>
<clipPath id="clip0_710_937">
<rect width="59" height="59" fill="white"/>
</clipPath>
<clipPath id="clip1_710_937">
<rect width="24" height="24" fill="white" transform="translate(18 12)"/>
</clipPath>
</defs>
</svg>
