<svg width="59" height="59" viewBox="0 0 59 59" fill="none" xmlns="http://www.w3.org/2000/svg">
<g clip-path="url(#clip0_710_933)">
<path d="M29.5 0.103271C22.9951 0.110428 16.7586 2.69749 12.1588 7.29692C7.55887 11.8963 4.97118 18.1325 4.96337 24.6374C4.96337 30.9554 9.85545 40.8428 19.5044 54.0244C20.6531 55.598 22.1571 56.8782 23.894 57.7608C25.6309 58.6434 27.5517 59.1034 29.5 59.1034C31.4483 59.1034 33.3691 58.6434 35.106 57.7608C36.8429 56.8782 38.3469 55.598 39.4956 54.0244C49.1445 40.8428 54.0366 30.9554 54.0366 24.6374C54.0288 18.1325 51.4411 11.8963 46.8412 7.29692C42.2414 2.69749 36.0049 0.110428 29.5 0.103271ZM29.5 34.4167C27.5551 34.4167 25.654 33.84 24.0369 32.7595C22.4198 31.679 21.1594 30.1432 20.4152 28.3464C19.6709 26.5496 19.4762 24.5724 19.8556 22.665C20.235 20.7575 21.1716 19.0054 22.5468 17.6301C23.922 16.2549 25.6741 15.3184 27.5816 14.939C29.4891 14.5595 31.4662 14.7543 33.2631 15.4985C35.0599 16.2428 36.5956 17.5032 37.6761 19.1202C38.7566 20.7373 39.3333 22.6385 39.3333 24.5834C39.3333 27.1913 38.2973 29.6925 36.4532 31.5366C34.6091 33.3807 32.108 34.4167 29.5 34.4167Z" fill="black"/>
<circle cx="29" cy="22" r="14" fill="black"/>
<g clip-path="url(#clip1_710_933)">
<path d="M30.9396 13.75V11.9167C30.9396 11.6736 31.0362 11.4404 31.2081 11.2685C31.38 11.0966 31.6131 11 31.8562 11C32.0994 11 32.3325 11.0966 32.5044 11.2685C32.6763 11.4404 32.7729 11.6736 32.7729 11.9167V13.75C32.7729 13.9931 32.6763 14.2263 32.5044 14.3982C32.3325 14.5701 32.0994 14.6667 31.8562 14.6667C31.6131 14.6667 31.38 14.5701 31.2081 14.3982C31.0362 14.2263 30.9396 13.9931 30.9396 13.75ZM28.1896 14.6667C28.4327 14.6667 28.6659 14.5701 28.8378 14.3982C29.0097 14.2263 29.1062 13.9931 29.1062 13.75V11.9167C29.1062 11.6736 29.0097 11.4404 28.8378 11.2685C28.6659 11.0966 28.4327 11 28.1896 11C27.9465 11 27.7133 11.0966 27.5414 11.2685C27.3695 11.4404 27.2729 11.6736 27.2729 11.9167V13.75C27.2729 13.9931 27.3695 14.2263 27.5414 14.3982C27.7133 14.5701 27.9465 14.6667 28.1896 14.6667ZM24.5229 14.6667C24.766 14.6667 24.9992 14.5701 25.1711 14.3982C25.343 14.2263 25.4396 13.9931 25.4396 13.75V11.9167C25.4396 11.6736 25.343 11.4404 25.1711 11.2685C24.9992 11.0966 24.766 11 24.5229 11C24.2798 11 24.0466 11.0966 23.8747 11.2685C23.7028 11.4404 23.6063 11.6736 23.6063 11.9167V13.75C23.6063 13.9931 23.7028 14.2263 23.8747 14.3982C24.0466 14.5701 24.2798 14.6667 24.5229 14.6667ZM41 23.0477C40.9699 23.9986 40.5699 24.9002 39.885 25.5606C39.2002 26.2209 38.2847 26.5879 37.3333 26.5833H35.0646C34.4808 27.439 33.6951 28.1375 32.7771 28.6172C31.859 29.0968 30.8369 29.3428 29.8011 29.3333H26.5313C25.4781 29.3439 24.439 29.0903 23.5089 28.5958C22.5789 28.1014 21.7876 27.3817 21.2073 26.5027C19.9093 24.4319 16.7514 16.8401 21.75 16.5H34.5833C35.0205 16.5119 35.449 16.6245 35.8355 16.829C36.222 17.0336 36.5561 17.3246 36.8118 17.6795C37.0674 18.0343 37.2377 18.4433 37.3094 18.8747C37.3811 19.3061 37.3523 19.7482 37.2252 20.1667C39.4903 20.1667 41 21.2712 41 23.0477ZM39.1667 23.0477C39.2473 22.198 38.0208 21.9258 36.9135 22C36.7086 22.942 36.4158 23.8627 36.039 24.75H37.3333C37.7987 24.7547 38.2481 24.5808 38.5892 24.2642C38.9302 23.9475 39.1369 23.5122 39.1667 23.0477ZM36.4167 31.1667H19.9167C19.6736 31.1667 19.4404 31.2632 19.2685 31.4352C19.0966 31.6071 19 31.8402 19 32.0833C19 32.3264 19.0966 32.5596 19.2685 32.7315C19.4404 32.9034 19.6736 33 19.9167 33H36.4167C36.6598 33 36.8929 32.9034 37.0648 32.7315C37.2368 32.5596 37.3333 32.3264 37.3333 32.0833C37.3333 31.8402 37.2368 31.6071 37.0648 31.4352C36.8929 31.2632 36.6598 31.1667 36.4167 31.1667Z" fill="white"/>
</g>
</g>
<defs>
<clipPath id="clip0_710_933">
<rect width="59" height="59" fill="white"/>
</clipPath>
<clipPath id="clip1_710_933">
<rect width="22" height="22" fill="white" transform="translate(19 11)"/>
</clipPath>
</defs>
</svg>
