<svg width="59" height="59" viewBox="0 0 59 59" fill="none" xmlns="http://www.w3.org/2000/svg">
<g clip-path="url(#clip0_710_895)">
<path d="M29.5 0.103271C22.9951 0.110428 16.7586 2.69749 12.1588 7.29692C7.55887 11.8963 4.97118 18.1325 4.96337 24.6374C4.96337 30.9554 9.85545 40.8428 19.5044 54.0244C20.6531 55.598 22.1571 56.8782 23.894 57.7608C25.6309 58.6434 27.5517 59.1034 29.5 59.1034C31.4483 59.1034 33.3691 58.6434 35.106 57.7608C36.8429 56.8782 38.3469 55.598 39.4956 54.0244C49.1445 40.8428 54.0366 30.9554 54.0366 24.6374C54.0288 18.1325 51.4411 11.8963 46.8412 7.29692C42.2414 2.69749 36.0049 0.110428 29.5 0.103271ZM29.5 34.4167C27.5551 34.4167 25.654 33.84 24.0369 32.7595C22.4198 31.679 21.1594 30.1432 20.4152 28.3464C19.6709 26.5496 19.4762 24.5724 19.8556 22.665C20.235 20.7575 21.1716 19.0054 22.5468 17.6301C23.922 16.2549 25.6741 15.3184 27.5816 14.939C29.4891 14.5595 31.4662 14.7543 33.2631 15.4985C35.0599 16.2428 36.5956 17.5032 37.6761 19.1202C38.7566 20.7373 39.3333 22.6385 39.3333 24.5834C39.3333 27.1913 38.2973 29.6925 36.4532 31.5366C34.6091 33.3807 32.108 34.4167 29.5 34.4167Z" fill="black"/>
<circle cx="29" cy="22" r="14" fill="black"/>
<g clip-path="url(#clip1_710_895)">
<path d="M28.4584 16.4919C25.5791 16.7083 22.8008 17.6469 20.3802 19.221C20.6968 17.9597 21.3671 16.8152 22.3124 15.9221C23.2577 15.0291 24.4384 14.4248 25.7157 14.1804C26.0536 14.1124 26.4026 14.1216 26.7365 14.2071C27.0705 14.2927 27.3808 14.4526 27.6444 14.6747C27.9081 14.8969 28.1181 15.1757 28.2591 15.4903C28.4 15.8049 28.4681 16.1473 28.4584 16.4919ZM41.6396 16.4679C41.2613 15.9503 40.7813 15.5152 40.2292 15.1892C39.677 14.8632 39.0642 14.6533 38.4282 14.5721C38.347 13.936 38.137 13.3232 37.811 12.7711C37.4851 12.2189 37.05 11.739 36.5323 11.3606C36.2668 11.1608 35.951 11.0389 35.6201 11.0085C35.2893 10.9781 34.9565 11.0404 34.659 11.1884C34.3615 11.3364 34.1112 11.5643 33.9359 11.8466C33.7606 12.1289 33.6674 12.4544 33.6667 12.7867V18.2919C25.8365 18.2919 21.3688 19.7887 19.0448 23.7023C21.5109 24.3465 23.7606 25.6368 25.5618 27.4402C27.363 29.2436 28.6505 31.4948 29.2917 33.9617C33.2094 31.6387 34.7084 27.17 34.7084 19.3335H40.2136C40.5458 19.3328 40.8713 19.2396 41.1536 19.0643C41.4359 18.8891 41.6638 18.6387 41.8118 18.3413C41.9599 18.0438 42.0222 17.711 41.9918 17.3801C41.9613 17.0493 41.8394 16.7334 41.6396 16.4679ZM37 24.5419H36.5053C36.3481 25.9533 36.0647 27.3478 35.6584 28.7085H36.5063C39.0969 28.7887 39.9292 24.671 37 24.5419ZM27.3657 34.8658C24.8657 35.5825 20.5563 37.0981 18.2198 34.7804C17.8002 34.3621 17.4751 33.8587 17.2663 33.3043C17.0575 32.7498 16.9699 32.157 17.0094 31.5658C17.106 29.5438 17.4851 27.5453 18.1355 25.6283C20.3905 26.1366 22.455 27.2746 24.0889 28.9098C25.7229 30.545 26.8591 32.6104 27.3657 34.8658ZM22.2084 31.8335C22.2084 31.5573 22.0986 31.2923 21.9033 31.097C21.7079 30.9016 21.443 30.7919 21.1667 30.7919C20.8904 30.7919 20.6255 30.9016 20.4301 31.097C20.2348 31.2923 20.125 31.5573 20.125 31.8335C20.125 32.1098 20.2348 32.3748 20.4301 32.5701C20.6255 32.7655 20.8904 32.8752 21.1667 32.8752C21.443 32.8752 21.7079 32.7655 21.9033 32.5701C22.0986 32.3748 22.2084 32.1098 22.2084 31.8335Z" fill="white"/>
</g>
</g>
<defs>
<clipPath id="clip0_710_895">
<rect width="59" height="59" fill="white"/>
</clipPath>
<clipPath id="clip1_710_895">
<rect width="25" height="25" fill="white" transform="translate(17 11)"/>
</clipPath>
</defs>
</svg>
