<svg width="59" height="59" viewBox="0 0 59 59" fill="none" xmlns="http://www.w3.org/2000/svg">
<g clip-path="url(#clip0_710_834)">
<path d="M29.5 0.103271C22.9951 0.110428 16.7587 2.69749 12.1588 7.29692C7.55887 11.8963 4.97119 18.1325 4.96338 24.6374C4.96338 30.9554 9.85546 40.8428 19.5044 54.0244C20.6531 55.598 22.1571 56.8782 23.894 57.7608C25.6309 58.6434 27.5517 59.1034 29.5 59.1034C31.4483 59.1034 33.3691 58.6434 35.106 57.7608C36.8429 56.8782 38.3469 55.598 39.4956 54.0244C49.1445 40.8428 54.0366 30.9554 54.0366 24.6374C54.0288 18.1325 51.4411 11.8963 46.8412 7.29692C42.2414 2.69749 36.0049 0.110428 29.5 0.103271ZM29.5 34.4167C27.5552 34.4167 25.654 33.84 24.0369 32.7595C22.4198 31.679 21.1595 30.1432 20.4152 28.3464C19.6709 26.5496 19.4762 24.5724 19.8556 22.665C20.235 20.7575 21.1716 19.0054 22.5468 17.6301C23.922 16.2549 25.6741 15.3184 27.5816 14.939C29.4891 14.5595 31.4663 14.7543 33.2631 15.4985C35.0599 16.2428 36.5956 17.5032 37.6761 19.1202C38.7566 20.7373 39.3333 22.6385 39.3333 24.5834C39.3333 27.1913 38.2973 29.6925 36.4532 31.5366C34.6091 33.3807 32.108 34.4167 29.5 34.4167Z" fill="black"/>
<circle cx="29" cy="22" r="14" fill="black"/>
<g clip-path="url(#clip1_710_834)">
<path d="M42.7064 34.1735C42.9034 34.3829 43.0091 34.6621 43.0002 34.9494C42.9914 35.2368 42.8687 35.5089 42.6593 35.7059C42.4498 35.9028 42.1707 36.0085 41.8833 35.9997C41.596 35.9908 41.3239 35.8682 41.1269 35.6587L35.187 29.3332C34.0647 29.3689 28.8961 29.5227 30.5157 27.0798C30.6513 26.942 30.8218 26.8436 31.0089 26.7951C31.1961 26.7466 31.393 26.7499 31.5784 26.8047C32.7895 27.1803 34.0679 27.2875 35.3246 27.1188C35.5417 27.091 35.7624 27.1158 35.9679 27.1912C36.1735 27.2667 36.3578 27.3905 36.5054 27.5522L42.7064 34.1735ZM33.25 25.1667C33.9613 25.1677 34.6658 25.0283 35.3232 24.7565C35.9805 24.4847 36.5778 24.0859 37.0807 23.5828L42.6826 17.9798C42.7833 17.8792 42.8632 17.7598 42.9178 17.6283C42.9724 17.4969 43.0005 17.3559 43.0006 17.2136C43.0007 17.0712 42.9728 16.9303 42.9184 16.7987C42.864 16.6672 42.7842 16.5476 42.6837 16.4469C42.5831 16.3462 42.4636 16.2663 42.3322 16.2117C42.2007 16.1571 42.0598 16.129 41.9174 16.1289C41.7751 16.1288 41.6341 16.1567 41.5026 16.2111C41.371 16.2655 41.2515 16.3452 41.1507 16.4458L35.5488 22.0488C35.0731 22.5204 34.4632 22.8335 33.8027 22.9452C33.1422 23.0569 32.4634 22.9618 31.859 22.6728L39.4326 15.0992C39.5361 14.9993 39.6186 14.8798 39.6754 14.7476C39.7321 14.6154 39.762 14.4733 39.7633 14.3294C39.7645 14.1856 39.7371 14.0429 39.6826 13.9098C39.6282 13.7767 39.5477 13.6557 39.446 13.554C39.3443 13.4523 39.2233 13.3718 39.0902 13.3174C38.9571 13.2629 38.8144 13.2355 38.6706 13.2367C38.5267 13.238 38.3846 13.2679 38.2524 13.3246C38.1202 13.3814 38.0007 13.4639 37.9007 13.5674L30.325 21.141C30.0361 20.5366 29.9409 19.8578 30.0526 19.1973C30.1643 18.5368 30.4774 17.9269 30.949 17.4512L36.5542 11.8492C36.7515 11.6449 36.8607 11.3713 36.8582 11.0872C36.8558 10.8032 36.7418 10.5315 36.541 10.3306C36.3401 10.1297 36.0684 10.0158 35.7843 10.0133C35.5003 10.0109 35.2267 10.1201 35.0223 10.3174L29.4193 15.9193C28.5383 16.8033 27.9889 17.964 27.8636 19.2058C27.7383 20.4475 28.0448 21.6945 28.7314 22.7367L17.3174 34.1507C17.1201 34.3551 17.0109 34.6287 17.0134 34.9128C17.0158 35.1968 17.1298 35.4685 17.3306 35.6694C17.5315 35.8702 17.8032 35.9842 18.0872 35.9866C18.3713 35.9891 18.6449 35.8799 18.8492 35.6826L30.2632 24.2686C31.1493 24.8543 32.1879 25.1666 33.25 25.1667ZM22.9063 24.0454C23.8044 24.8915 24.6332 23.7681 25.2366 23.1668C25.4862 22.9145 25.67 22.6047 25.7718 22.2647C25.8736 21.9246 25.8903 21.5648 25.8205 21.2168C25.1521 19.3513 26.7857 17.1738 25.4337 15.6734L20.6064 10.6207C20.3086 10.3314 19.9327 10.1357 19.5249 10.0576C19.1171 9.97955 18.6954 10.0226 18.3118 10.1815C17.9283 10.3404 17.5996 10.6082 17.3665 10.9517C17.1334 11.2952 17.006 11.6995 17 12.1147C17.2567 17.1132 19.0963 19.6633 22.9063 24.0454Z" fill="white"/>
</g>
</g>
<defs>
<clipPath id="clip0_710_834">
<rect width="59" height="59" fill="white"/>
</clipPath>
<clipPath id="clip1_710_834">
<rect width="26" height="26" fill="white" transform="translate(17 10)"/>
</clipPath>
</defs>
</svg>
