<svg width="59" height="59" viewBox="0 0 59 59" fill="none" xmlns="http://www.w3.org/2000/svg">
<g clip-path="url(#clip0_710_874)">
<path d="M29.5 0.103271C22.9951 0.110428 16.7587 2.69749 12.1588 7.29692C7.55887 11.8963 4.97119 18.1325 4.96338 24.6374C4.96338 30.9554 9.85546 40.8428 19.5044 54.0244C20.6531 55.598 22.1571 56.8782 23.894 57.7608C25.6309 58.6434 27.5517 59.1034 29.5 59.1034C31.4483 59.1034 33.3691 58.6434 35.106 57.7608C36.8429 56.8782 38.3469 55.598 39.4956 54.0244C49.1445 40.8428 54.0366 30.9554 54.0366 24.6374C54.0288 18.1325 51.4411 11.8963 46.8412 7.29692C42.2414 2.69749 36.0049 0.110428 29.5 0.103271ZM29.5 34.4167C27.5552 34.4167 25.654 33.84 24.0369 32.7595C22.4198 31.679 21.1595 30.1432 20.4152 28.3464C19.6709 26.5496 19.4762 24.5724 19.8556 22.665C20.235 20.7575 21.1716 19.0054 22.5468 17.6301C23.922 16.2549 25.6741 15.3184 27.5816 14.939C29.4891 14.5595 31.4663 14.7543 33.2631 15.4985C35.0599 16.2428 36.5956 17.5032 37.6761 19.1202C38.7566 20.7373 39.3333 22.6385 39.3333 24.5834C39.3333 27.1913 38.2973 29.6925 36.4532 31.5366C34.6091 33.3807 32.108 34.4167 29.5 34.4167Z" fill="black"/>
<circle cx="29" cy="22" r="14" fill="black"/>
<g clip-path="url(#clip1_710_874)">
<path d="M32.9225 32.4228C31.8434 33.5417 30.6487 34.5053 29.6477 35.2357C28.9559 35.7408 28.1299 36.001 27.2899 36.001C26.8139 36.001 26.3344 35.9182 25.8712 35.7478C22.8764 34.6535 17.7687 32.2432 17.211 28.406L16.0455 20.3933C15.7434 18.3108 16.9835 16.2878 18.9949 15.582C20.1767 15.1678 21.3504 14.8295 22.5042 14.5705L21.7832 19.53C21.7272 19.9138 21.7027 20.293 21.7074 20.6675C20.8732 20.7958 20.2689 21.6055 20.0425 22.6672C19.9667 23.0218 20.2689 23.3427 20.627 23.2913L22.1192 23.0778C22.5182 24.2923 23.1797 25.4438 23.9929 26.5137C22.7189 27.153 21.8089 28.3698 21.4029 29.806C21.2512 30.3438 21.8625 30.7732 22.3269 30.4628C23.6289 29.5925 24.8352 29.0757 26.1337 28.8715C27.0449 29.7337 28.0097 30.5118 28.9395 31.192C30.0444 32.0005 31.3522 32.4287 32.7207 32.4287C32.7884 32.4287 32.8549 32.4275 32.9225 32.4252V32.4228ZM29.7352 15.9623L32.6145 16.3742C32.9727 16.4255 33.2749 16.1047 33.199 15.75C32.9715 14.6837 32.3625 13.8705 31.5202 13.748C30.6767 13.6267 29.8659 14.238 29.3479 15.1993C29.1764 15.5178 29.377 15.911 29.7352 15.9623ZM43.9534 14.4877L42.7867 22.5003C42.2279 26.3375 37.1225 28.7467 34.1277 29.8422C33.6692 30.0102 33.1932 30.0918 32.7195 30.0918C31.8667 30.0918 31.0244 29.8247 30.3162 29.3055C27.7519 27.4283 23.532 23.7067 24.0909 19.8637L25.2564 11.851C25.5585 9.77435 27.3214 8.17718 29.4482 8.05351C31.5004 7.93685 33.4732 8.00451 35.313 8.26351C37.1529 8.52251 39.0674 8.99618 41.0029 9.67518C43.0154 10.381 44.2555 12.4052 43.9534 14.4877ZM36.9709 20.2428C34.333 20.8553 32.3322 20.5707 29.972 19.2465C29.4692 18.9642 28.8707 19.453 29.0725 19.9932C29.7224 21.7327 31.1212 23.0697 32.9552 23.3287C34.7892 23.5888 36.51 22.6975 37.6219 21.2065C37.9649 20.7468 37.5297 20.1133 36.9709 20.2428ZM38.6439 16.527C38.4164 15.4607 37.8074 14.6475 36.965 14.525C36.1215 14.4037 35.3107 15.015 34.7927 15.9763C34.6212 16.2948 34.8207 16.688 35.1789 16.7393L38.0582 17.1512C38.4164 17.2025 38.7197 16.8817 38.6439 16.527Z" fill="white"/>
</g>
</g>
<defs>
<clipPath id="clip0_710_874">
<rect width="59" height="59" fill="white"/>
</clipPath>
<clipPath id="clip1_710_874">
<rect width="28" height="28" fill="white" transform="translate(16 8)"/>
</clipPath>
</defs>
</svg>
