<svg width="247" height="40" viewBox="0 0 247 40" fill="none" xmlns="http://www.w3.org/2000/svg">
<path fill-rule="evenodd" clip-rule="evenodd" d="M0 5C0 2.23859 2.23857 0 5 0H35C37.7614 0 40 2.23859 40 5V35C40 37.7614 37.7614 40 35 40H21.0982V34.5244L27.0622 34.1815C27.3379 34.1657 27.548 33.9294 27.5314 33.6537L27.2698 29.2991C27.2533 29.0235 27.0163 28.8128 26.7406 28.8287L21.0982 29.1531V27.6683L30.5107 28.4743C30.6211 28.4838 30.7316 28.4563 30.825 28.3963L33.4606 26.7001C33.7163 26.5355 33.7683 26.1835 33.5708 25.9537L31.2915 23.3015C31.2065 23.2026 31.0862 23.1411 30.9561 23.1299L21.0982 22.2857V20.9293L26.1071 21.1638C26.3829 21.1768 26.6175 20.9637 26.631 20.6878L26.8442 16.3307C26.8577 16.0549 26.645 15.8208 26.3692 15.8079L21.0982 15.5611V13.5481L31.1923 12.6031C31.2962 12.5934 31.3943 12.5514 31.4729 12.483L33.9528 10.3261C34.1931 10.1171 34.1776 9.7388 33.9209 9.54797L30.9846 7.36542C30.885 7.29144 30.7617 7.25687 30.6384 7.2684L21.0982 8.1615V7C21.0982 6.44772 20.6505 6 20.0982 6H18.7687C18.2164 6 17.7687 6.44772 17.7687 7V8.47321L11.4414 9.06552C11.1665 9.09128 10.9654 9.33493 10.9923 9.60977L11.4171 13.9522C11.444 14.227 11.6886 14.429 11.9636 14.4032L17.7687 13.8598V15.4052L10.1743 15.0496C10.0364 15.0431 9.90178 15.094 9.80246 15.1901L7.38553 17.529C7.17941 17.7285 7.1824 18.0596 7.39207 18.2544L9.56226 20.2711C9.64865 20.3513 9.76074 20.3984 9.87866 20.4039L17.7687 20.7734V22.0005L13.2599 21.6144C12.9847 21.5909 12.7418 21.7947 12.7171 22.0698L12.3283 26.4154C12.3036 26.6904 12.5067 26.9325 12.7819 26.9561L17.7687 27.3831V29.3445L8.84744 29.8575C8.71785 29.8649 8.59636 29.9225 8.50867 30.0179L6.13136 32.6063C5.92508 32.8309 5.96704 33.1868 6.22003 33.3584L8.82635 35.1265C8.91756 35.1884 9.02655 35.2185 9.13643 35.2122L17.7687 34.7159V40H5C2.23857 40 0 37.7614 0 35V5ZM62.96 32.808C63.3867 33.128 63.9413 33.288 64.624 33.288C65.3067 33.288 65.84 33.128 66.224 32.808C66.6293 32.4667 66.96 31.9653 67.216 31.304L71.95 18.0488L76.624 31.272C76.88 31.9547 77.2107 32.4667 77.616 32.808C78.0213 33.128 78.5653 33.288 79.248 33.288C79.952 33.288 80.5067 33.128 80.912 32.808C81.3173 32.4667 81.6373 31.9653 81.872 31.304L88.4 13.096C88.6987 12.2853 88.656 11.592 88.272 11.016C87.888 10.44 87.28 10.152 86.448 10.152C85.7867 10.152 85.264 10.3227 84.88 10.664C84.496 10.984 84.1973 11.4747 83.984 12.136L79.2023 26.111L74.48 12.2C74.224 11.496 73.9147 10.984 73.552 10.664C73.1893 10.3227 72.7093 10.152 72.112 10.152C71.4933 10.152 70.992 10.3227 70.608 10.664C70.2453 10.984 69.936 11.4853 69.68 12.168L64.819 25.8571L60.208 12.136C59.9733 11.4533 59.664 10.952 59.28 10.632C58.9173 10.312 58.3947 10.152 57.712 10.152C56.7307 10.152 56.0373 10.44 55.632 11.016C55.248 11.592 55.1947 12.2853 55.472 13.096L61.936 31.272C62.192 31.9547 62.5333 32.4667 62.96 32.808ZM93.8078 32.648C94.2344 33.0747 94.8424 33.288 95.6317 33.288C97.2318 33.288 98.0317 32.4667 98.0317 30.824V24.232C98.0317 23.1653 98.3304 22.312 98.9278 21.672C99.5464 21.032 100.368 20.712 101.392 20.712C102.202 20.712 102.8 20.9573 103.184 21.448C103.589 21.9173 103.792 22.696 103.792 23.784V30.824C103.792 31.6133 103.994 32.2213 104.4 32.648C104.826 33.0747 105.424 33.288 106.192 33.288C106.981 33.288 107.578 33.0747 107.984 32.648C108.41 32.2213 108.624 31.6133 108.624 30.824V23.56C108.624 22.0667 108.421 20.84 108.016 19.88C107.61 18.8987 107.002 18.1733 106.192 17.704C105.381 17.2133 104.346 16.968 103.088 16.968C101.85 16.968 100.741 17.256 99.7598 17.832C99.0586 18.2371 98.4825 18.7732 98.0317 19.4401V12.616C98.0317 11.8053 97.8184 11.1973 97.3918 10.792C96.9864 10.3653 96.3997 10.152 95.6317 10.152C94.8424 10.152 94.2344 10.3653 93.8078 10.792C93.4024 11.1973 93.1998 11.8053 93.1998 12.616V30.824C93.1998 31.6133 93.4024 32.2213 93.8078 32.648ZM115.591 32.36C116.935 33.0213 118.535 33.352 120.391 33.352C121.244 33.352 122.119 33.2453 123.015 33.032C123.932 32.84 124.754 32.5413 125.479 32.136C125.927 31.9013 126.247 31.6133 126.439 31.272C126.631 30.9093 126.706 30.5467 126.663 30.184C126.642 29.8213 126.524 29.5013 126.311 29.224C126.098 28.9467 125.799 28.776 125.415 28.712C125.031 28.6267 124.594 28.7013 124.103 28.936C123.527 29.2133 122.908 29.416 122.247 29.544C121.586 29.672 120.999 29.736 120.487 29.736C118.994 29.736 117.863 29.352 117.095 28.584C116.544 28.0168 116.196 27.2168 116.052 26.184H125.479C125.97 26.184 126.343 26.088 126.599 25.896C126.855 25.6827 126.983 25.3733 126.983 24.968C126.983 23.752 126.812 22.6533 126.471 21.672C126.13 20.6693 125.628 19.8267 124.967 19.144C124.306 18.44 123.516 17.9067 122.599 17.544C121.682 17.16 120.658 16.968 119.527 16.968C117.97 16.968 116.572 17.32 115.335 18.024C114.119 18.7067 113.17 19.6667 112.487 20.904C111.804 22.12 111.463 23.5387 111.463 25.16C111.463 26.824 111.815 28.2747 112.519 29.512C113.244 30.728 114.268 31.6773 115.591 32.36ZM116.043 23.688C116.114 23.1668 116.24 22.6975 116.423 22.28C116.722 21.5973 117.148 21.0747 117.703 20.712C118.258 20.3493 118.93 20.168 119.719 20.168C120.423 20.168 121.01 20.3173 121.479 20.616C121.97 20.9147 122.343 21.3627 122.599 21.96C122.81 22.4346 122.934 23.0106 122.971 23.688H116.043ZM130.434 32.648C130.86 33.0747 131.479 33.288 132.289 33.288C133.079 33.288 133.676 33.0747 134.082 32.648C134.508 32.2213 134.721 31.6133 134.721 30.824V24.872C134.721 23.7413 135.009 22.8773 135.586 22.28C136.183 21.6827 137.09 21.3307 138.306 21.224L139.042 21.16C139.767 21.0747 140.279 20.84 140.578 20.456C140.897 20.072 141.036 19.5493 140.993 18.888C140.972 18.184 140.812 17.6827 140.513 17.384C140.236 17.064 139.831 16.9253 139.297 16.968C137.911 17.0533 136.78 17.448 135.905 18.152C135.297 18.6416 134.839 19.2704 134.53 20.0386V19.464C134.53 18.6747 134.327 18.0773 133.922 17.672C133.516 17.2453 132.93 17.032 132.161 17.032C131.415 17.032 130.828 17.2453 130.401 17.672C129.996 18.0773 129.793 18.6747 129.793 19.464V30.824C129.793 31.6133 130.007 32.2213 130.434 32.648ZM146.06 32.36C147.404 33.0213 149.004 33.352 150.86 33.352C151.713 33.352 152.588 33.2453 153.484 33.032C154.401 32.84 155.222 32.5413 155.948 32.136C156.396 31.9013 156.716 31.6133 156.908 31.272C157.1 30.9093 157.174 30.5467 157.132 30.184C157.11 29.8213 156.993 29.5013 156.78 29.224C156.566 28.9467 156.268 28.776 155.884 28.712C155.5 28.6267 155.062 28.7013 154.572 28.936C153.996 29.2133 153.377 29.416 152.716 29.544C152.054 29.672 151.468 29.736 150.956 29.736C149.462 29.736 148.332 29.352 147.564 28.584C147.012 28.0168 146.664 27.2168 146.52 26.184H155.948C156.438 26.184 156.812 26.088 157.068 25.896C157.324 25.6827 157.452 25.3733 157.452 24.968C157.452 23.752 157.281 22.6533 156.94 21.672C156.598 20.6693 156.097 19.8267 155.436 19.144C154.774 18.44 153.985 17.9067 153.068 17.544C152.15 17.16 151.126 16.968 149.996 16.968C148.438 16.968 147.041 17.32 145.804 18.024C144.588 18.7067 143.638 19.6667 142.956 20.904C142.273 22.12 141.932 23.5387 141.932 25.16C141.932 26.824 142.284 28.2747 142.988 29.512C143.713 30.728 144.737 31.6773 146.06 32.36ZM146.511 23.688C146.582 23.1668 146.709 22.6975 146.892 22.28C147.19 21.5973 147.617 21.0747 148.172 20.712C148.726 20.3493 149.398 20.168 150.188 20.168C150.892 20.168 151.478 20.3173 151.948 20.616C152.438 20.9147 152.812 21.3627 153.068 21.96C153.279 22.4346 153.403 23.0106 153.44 23.688H146.511ZM170.192 32.68C170.597 33.0853 171.173 33.288 171.92 33.288C172.688 33.288 173.264 33.0853 173.648 32.68C174.032 32.2533 174.224 31.656 174.224 30.888V18.5746L184.592 31.816C184.997 32.328 185.37 32.7013 185.712 32.936C186.074 33.1707 186.554 33.288 187.152 33.288C187.77 33.288 188.261 33.0853 188.624 32.68C188.986 32.2533 189.168 31.688 189.168 30.984V12.52C189.168 11.7733 188.965 11.1973 188.56 10.792C188.176 10.3653 187.61 10.152 186.864 10.152C186.117 10.152 185.541 10.3653 185.136 10.792C184.752 11.1973 184.56 11.7733 184.56 12.52V24.7957L174.192 11.592C173.786 11.08 173.424 10.7173 173.104 10.504C172.805 10.2693 172.368 10.152 171.792 10.152C171.13 10.152 170.597 10.3653 170.192 10.792C169.808 11.2187 169.616 11.8373 169.616 12.648V30.888C169.616 31.656 169.808 32.2533 170.192 32.68ZM196.654 32.36C197.997 33.0213 199.598 33.352 201.453 33.352C202.307 33.352 203.181 33.2453 204.078 33.032C204.995 32.84 205.816 32.5413 206.542 32.136C206.99 31.9013 207.31 31.6133 207.501 31.272C207.694 30.9093 207.768 30.5467 207.725 30.184C207.704 29.8213 207.587 29.5013 207.374 29.224C207.16 28.9467 206.862 28.776 206.478 28.712C206.094 28.6267 205.656 28.7013 205.165 28.936C204.59 29.2133 203.971 29.416 203.31 29.544C202.648 29.672 202.061 29.736 201.549 29.736C200.056 29.736 198.926 29.352 198.158 28.584C197.606 28.0168 197.258 27.2168 197.114 26.184H206.542C207.032 26.184 207.405 26.088 207.661 25.896C207.918 25.6827 208.046 25.3733 208.046 24.968C208.046 23.752 207.875 22.6533 207.534 21.672C207.192 20.6693 206.691 19.8267 206.03 19.144C205.368 18.44 204.579 17.9067 203.661 17.544C202.744 17.16 201.72 16.968 200.59 16.968C199.032 16.968 197.635 17.32 196.397 18.024C195.181 18.7067 194.232 19.6667 193.549 20.904C192.867 22.12 192.526 23.5387 192.526 25.16C192.526 26.824 192.878 28.2747 193.582 29.512C194.307 30.728 195.331 31.6773 196.654 32.36ZM197.105 23.688C197.176 23.1668 197.303 22.6975 197.486 22.28C197.784 21.5973 198.211 21.0747 198.766 20.712C199.32 20.3493 199.992 20.168 200.781 20.168C201.486 20.168 202.072 20.3173 202.542 20.616C203.032 20.9147 203.405 21.3627 203.661 21.96C203.872 22.4346 203.996 23.0106 204.034 23.688H197.105ZM211.017 32.744C211.38 33.064 211.86 33.224 212.457 33.224C213.034 33.224 213.503 33.1173 213.866 32.904C214.25 32.6907 214.612 32.3813 214.953 31.976L217.882 28.2472L220.81 31.976C221.172 32.4027 221.535 32.7227 221.897 32.936C222.281 33.128 222.762 33.224 223.337 33.224C223.935 33.224 224.415 33.0533 224.777 32.712C225.161 32.3707 225.364 31.944 225.385 31.432C225.407 30.92 225.194 30.408 224.746 29.896L220.645 24.9021L224.362 20.36C224.81 19.8267 225.023 19.304 225.001 18.792C225.001 18.28 224.82 17.864 224.457 17.544C224.095 17.2027 223.615 17.032 223.017 17.032C222.463 17.032 221.993 17.128 221.609 17.32C221.225 17.512 220.852 17.832 220.49 18.28L217.914 21.5782L215.337 18.28C214.996 17.832 214.634 17.512 214.25 17.32C213.866 17.128 213.385 17.032 212.81 17.032C212.212 17.032 211.732 17.192 211.37 17.512C211.007 17.832 210.815 18.248 210.793 18.76C210.772 19.272 210.986 19.8053 211.434 20.36L215.153 24.9056L211.082 29.896C210.655 30.4293 210.441 30.952 210.441 31.464C210.463 31.976 210.655 32.4027 211.017 32.744ZM232.668 32.616C233.671 33.1067 234.909 33.352 236.38 33.352C236.722 33.352 237.127 33.3093 237.596 33.224C238.087 33.16 238.471 33.0747 238.749 32.968C239.175 32.7973 239.474 32.52 239.645 32.136C239.815 31.752 239.901 31.304 239.901 30.792C239.901 30.1093 239.805 29.672 239.612 29.48C239.421 29.2667 239.175 29.1707 238.876 29.192C238.642 29.2133 238.386 29.256 238.108 29.32C237.831 29.384 237.533 29.416 237.212 29.416C236.295 29.416 235.623 29.192 235.197 28.744C234.791 28.296 234.589 27.624 234.589 26.728V20.904H237.629C237.683 20.904 237.736 20.9026 237.789 20.9H243.25V23.1084C243.25 23.4881 243.729 23.6542 243.964 23.3559L246.805 19.7474C246.919 19.6023 246.919 19.3977 246.805 19.2526L243.964 15.6441C243.729 15.3458 243.25 15.5119 243.25 15.8916V17.3H237.901C237.814 17.292 237.723 17.288 237.629 17.288H234.589V14.856C234.589 14.0453 234.386 13.4373 233.98 13.032C233.575 12.6053 232.978 12.392 232.189 12.392C231.421 12.392 230.823 12.6053 230.397 13.032C229.97 13.4373 229.757 14.0453 229.757 14.856V17.288H228.413C227.815 17.288 227.346 17.448 227.004 17.768C226.685 18.0667 226.525 18.5147 226.525 19.112C226.525 19.6667 226.685 20.104 227.004 20.424C227.346 20.744 227.815 20.904 228.413 20.904H229.757V26.92C229.757 28.3493 229.991 29.5333 230.461 30.472C230.951 31.4107 231.687 32.1253 232.668 32.616Z" fill="#FB6026"/>
</svg>
