<svg width="40" height="40" viewBox="0 0 40 40" fill="none" xmlns="http://www.w3.org/2000/svg">
<path fill-rule="evenodd" clip-rule="evenodd" d="M5 0C2.23857 0 0 2.23857 0 5V35C0 37.7614 2.23857 40 5 40H17.7687V34.7159L9.13643 35.2122C9.02655 35.2185 8.91756 35.1884 8.82635 35.1265L6.22003 33.3584C5.96704 33.1868 5.92508 32.8309 6.13136 32.6063L8.50867 30.0179C8.59636 29.9225 8.71785 29.8649 8.84744 29.8575L17.7687 29.3445V27.3831L12.7819 26.9561C12.5067 26.9325 12.3036 26.6904 12.3283 26.4154L12.7171 22.0698C12.7417 21.7947 12.9847 21.5909 13.2599 21.6144L17.7687 22.0006V20.7734L9.87866 20.4039C9.76074 20.3984 9.64865 20.3513 9.56227 20.271L7.39207 18.2544C7.1824 18.0596 7.17941 17.7284 7.38553 17.529L9.80246 15.1901C9.90178 15.094 10.0364 15.0431 10.1743 15.0496L17.7687 15.4052V13.8598L11.9636 14.4032C11.6886 14.4289 11.444 14.227 11.4171 13.9522L10.9923 9.60976C10.9654 9.33493 11.1665 9.09126 11.4414 9.06554L17.7687 8.47321V7C17.7687 6.44772 18.2164 6 18.7687 6H20.0982C20.6505 6 21.0982 6.44771 21.0982 7V8.1615L30.6384 7.26839C30.7617 7.25685 30.885 7.29143 30.9846 7.36543L33.9209 9.54799C34.1776 9.73878 34.1931 10.1171 33.9528 10.3261L31.4729 12.483C31.3943 12.5514 31.2962 12.5934 31.1923 12.6031L21.0982 13.5481V15.5611L26.3692 15.8079C26.645 15.8208 26.8577 16.0549 26.8442 16.3307L26.631 20.6878C26.6175 20.9637 26.3829 21.1768 26.1071 21.1638L21.0982 20.9293V22.2857L30.9561 23.1299C31.0862 23.1411 31.2065 23.2026 31.2915 23.3015L33.5708 25.9537C33.7683 26.1835 33.7163 26.5355 33.4606 26.7001L30.825 28.3963C30.7316 28.4563 30.6211 28.4838 30.5107 28.4743L21.0982 27.6683V29.1531L26.7406 28.8287C27.0163 28.8129 27.2533 29.0235 27.2698 29.2991L27.5314 33.6537C27.548 33.9294 27.3379 34.1657 27.0622 34.1815L21.0982 34.5244V40H35C37.7614 40 40 37.7614 40 35V5C40 2.23857 37.7614 0 35 0H5Z" fill="#FB6026"/>
</svg>
