<?xml version="1.0" standalone="no"?>
<!DOCTYPE svg PUBLIC "-//W3C//DTD SVG 20010904//EN"
 "http://www.w3.org/TR/2001/REC-SVG-20010904/DTD/svg10.dtd">
<svg version="1.0" xmlns="http://www.w3.org/2000/svg"
 width="499.000000pt" height="499.000000pt" viewBox="0 0 499.000000 499.000000"
 preserveAspectRatio="xMidYMid meet">
<metadata>
Created by potrace 1.14, written by Peter Selinger 2001-2017
</metadata>
<g transform="translate(0.000000,499.000000) scale(0.100000,-0.100000)"
fill="#000000" stroke="none">
<path d="M570 4983 c-258 -30 -470 -199 -547 -436 l-23 -70 0 -1987 c0 -1983
0 -1987 21 -2051 59 -182 208 -337 386 -400 54 -20 91 -21 598 -30 297 -5 689
-8 870 -7 l330 3 3 322 2 323 -67 0 c-38 -1 -284 -14 -548 -30 l-480 -29 -172
115 c-94 63 -179 121 -187 130 -37 37 -22 62 141 239 86 94 162 173 169 178 7
4 126 14 266 22 139 8 327 19 418 25 91 5 226 12 300 16 74 4 141 11 148 17
15 12 17 223 2 232 -9 6 -61 11 -420 41 -107 9 -205 20 -217 25 -12 5 -25 20
-29 35 -6 24 28 479 43 562 11 65 22 66 295 43 134 -12 263 -22 288 -24 l45
-2 3 72 3 72 -33 5 c-18 3 -244 14 -503 26 -258 12 -475 24 -481 28 -7 4 -78
69 -158 145 -100 95 -146 146 -146 160 0 27 317 344 352 351 13 3 230 -5 483
-17 253 -13 466 -21 473 -19 8 3 12 31 12 94 l0 91 -82 -6 c-46 -3 -210 -17
-366 -32 -156 -15 -293 -24 -306 -21 -12 3 -27 16 -33 28 -7 13 -23 148 -38
301 -24 252 -25 281 -11 302 19 29 11 27 421 65 182 16 349 32 373 36 l42 5 0
113 c0 101 2 116 22 141 33 42 76 55 183 55 167 0 205 -34 205 -182 0 -66 3
-88 13 -88 16 0 818 74 1039 96 87 8 164 12 170 7 71 -43 396 -296 400 -310
10 -36 -11 -61 -154 -185 -212 -183 -158 -162 -493 -193 -159 -14 -443 -41
-630 -58 l-340 -32 0 -125 0 -125 330 -17 c182 -9 336 -17 342 -17 7 -1 19
-11 28 -24 13 -21 13 -54 0 -312 -13 -245 -18 -292 -33 -308 -18 -21 -29 -21
-515 -1 l-158 7 3 -84 3 -84 315 -27 c783 -66 923 -79 935 -86 12 -7 244 -273
293 -336 28 -37 28 -67 0 -92 -13 -11 -95 -67 -183 -125 -154 -100 -162 -104
-210 -102 -28 2 -288 23 -577 48 -289 25 -538 45 -552 45 l-26 0 0 -90 c0 -49
4 -90 8 -90 5 0 163 9 353 20 189 12 354 18 366 15 12 -3 27 -14 32 -24 10
-18 41 -438 41 -553 0 -49 -3 -60 -22 -72 -17 -10 -104 -18 -318 -30 -162 -9
-332 -19 -377 -22 l-83 -6 0 -339 0 -339 473 1 c259 0 684 4 942 8 455 8 472
9 529 31 195 75 342 236 391 426 13 54 15 287 13 2050 l-3 1989 -23 62 c-54
144 -166 272 -299 341 -160 83 30 76 -2123 78 -1053 0 -1931 -1 -1950 -3z"/>
</g>
</svg>
