<svg width="59" height="59" viewBox="0 0 59 59" fill="none" xmlns="http://www.w3.org/2000/svg">
<g clip-path="url(#clip0_717_50)">
<path d="M29.5 0C22.9823 0.00715768 16.7336 2.59948 12.1249 7.2082C7.51614 11.8169 4.92382 18.0656 4.91667 24.5833C4.91667 37.5683 25.5667 55.3936 27.9119 57.3849L29.5 58.7271L31.0881 57.3849C33.4333 55.3936 54.0833 37.5683 54.0833 24.5833C54.0762 18.0656 51.4839 11.8169 46.8751 7.2082C42.2664 2.59948 36.0177 0.00715768 29.5 0ZM29.5 36.875C27.0689 36.875 24.6925 36.1541 22.6711 34.8035C20.6498 33.4529 19.0743 31.5332 18.144 29.2872C17.2137 27.0411 16.9702 24.5697 17.4445 22.1853C17.9188 19.801 19.0895 17.6108 20.8085 15.8918C22.5275 14.1728 24.7177 13.0021 27.102 12.5278C29.4864 12.0536 31.9578 12.297 34.2038 13.2273C36.4498 14.1576 38.3695 15.7331 39.7202 17.7545C41.0708 19.7758 41.7917 22.1523 41.7917 24.5833C41.7878 27.8421 40.4915 30.9663 38.1872 33.2705C35.8829 35.5748 32.7588 36.8711 29.5 36.875Z" fill="black"/>
<path d="M29.5 31.9583C33.5731 31.9583 36.875 28.6564 36.875 24.5833C36.875 20.5102 33.5731 17.2083 29.5 17.2083C25.4269 17.2083 22.125 20.5102 22.125 24.5833C22.125 28.6564 25.4269 31.9583 29.5 31.9583Z" fill="black"/>
<circle cx="29" cy="25" r="14" fill="black"/>
<g clip-path="url(#clip1_717_50)">
<path d="M28.5417 14.0526C25.8928 14.2517 23.3368 15.1153 21.1098 16.5634C21.401 15.403 22.0178 14.35 22.8874 13.5285C23.7571 12.7069 24.8434 12.1509 26.0184 11.9261C26.3294 11.8635 26.6504 11.8719 26.9576 11.9507C27.2649 12.0294 27.5504 12.1764 27.7929 12.3808C28.0354 12.5852 28.2287 12.8417 28.3584 13.1311C28.488 13.4206 28.5507 13.7356 28.5417 14.0526ZM40.6685 14.0306C40.3204 13.5543 39.8788 13.154 39.3709 12.8541C38.8629 12.5543 38.2991 12.3611 37.7139 12.2864C37.6392 11.7012 37.4461 11.1374 37.1462 10.6295C36.8463 10.1215 36.446 9.67995 35.9698 9.33185C35.7255 9.14805 35.4349 9.03587 35.1305 9.00789C34.8261 8.97991 34.5199 9.03722 34.2463 9.1734C33.9726 9.30959 33.7423 9.51927 33.581 9.77897C33.4198 10.0387 33.334 10.3381 33.3334 10.6438V15.7086C26.1296 15.7086 22.0193 17.0857 19.8813 20.6862C22.1501 21.2788 24.2197 22.4659 25.8768 24.125C27.5339 25.7842 28.7185 27.8553 29.3084 30.1248C32.9127 27.9877 34.2917 23.8765 34.2917 16.6669H39.3565C39.6622 16.6663 39.9616 16.5805 40.2213 16.4193C40.481 16.258 40.6907 16.0277 40.8269 15.754C40.9631 15.4804 41.0204 15.1742 40.9924 14.8698C40.9644 14.5654 40.8523 14.2748 40.6685 14.0306ZM36.4001 21.4586H35.9448C35.8003 22.7571 35.5395 24.04 35.1657 25.2919H35.9458C38.3292 25.3657 39.0949 21.5774 36.4001 21.4586ZM27.5364 30.9566C25.2364 31.616 21.2718 33.0103 19.1223 30.8781C18.7362 30.4932 18.4371 30.0301 18.245 29.52C18.053 29.0099 17.9724 28.4645 18.0087 27.9206C18.0976 26.0604 18.4463 24.2218 19.0446 22.4581C21.1193 22.9258 23.0186 23.9727 24.5218 25.4771C26.025 26.9815 27.0704 28.8816 27.5364 30.9566ZM22.7917 28.1669C22.7917 27.9128 22.6907 27.669 22.511 27.4893C22.3313 27.3096 22.0875 27.2086 21.8334 27.2086C21.5792 27.2086 21.3355 27.3096 21.1557 27.4893C20.976 27.669 20.875 27.9128 20.875 28.1669C20.875 28.4211 20.976 28.6649 21.1557 28.8446C21.3355 29.0243 21.5792 29.1253 21.8334 29.1253C22.0875 29.1253 22.3313 29.0243 22.511 28.8446C22.6907 28.6649 22.7917 28.4211 22.7917 28.1669Z" fill="white"/>
</g>
</g>
<defs>
<clipPath id="clip0_717_50">
<rect width="59" height="59" fill="white"/>
</clipPath>
<clipPath id="clip1_717_50">
<rect width="23" height="23" fill="white" transform="translate(18 9)"/>
</clipPath>
</defs>
</svg>
