<svg width="59" height="59" viewBox="0 0 59 59" fill="none" xmlns="http://www.w3.org/2000/svg">
<g clip-path="url(#clip0_714_2)">
<path d="M29.5 0C22.9823 0.00715768 16.7336 2.59948 12.1249 7.2082C7.51615 11.8169 4.92383 18.0656 4.91667 24.5833C4.91667 37.5683 25.5667 55.3936 27.9119 57.3849L29.5 58.7271L31.0881 57.3849C33.4333 55.3936 54.0833 37.5683 54.0833 24.5833C54.0762 18.0656 51.4839 11.8169 46.8751 7.2082C42.2664 2.59948 36.0177 0.00715768 29.5 0ZM29.5 36.875C27.0689 36.875 24.6925 36.1541 22.6711 34.8035C20.6498 33.4529 19.0743 31.5332 18.144 29.2872C17.2137 27.0411 16.9702 24.5697 17.4445 22.1853C17.9188 19.801 19.0895 17.6108 20.8085 15.8918C22.5275 14.1728 24.7177 13.0021 27.102 12.5278C29.4864 12.0536 31.9578 12.297 34.2038 13.2273C36.4498 14.1576 38.3695 15.7331 39.7202 17.7545C41.0708 19.7758 41.7917 22.1523 41.7917 24.5833C41.7878 27.8421 40.4915 30.9663 38.1872 33.2705C35.8829 35.5748 32.7588 36.8711 29.5 36.875Z" fill="black"/>
<path d="M29.5 31.9583C33.5731 31.9583 36.875 28.6564 36.875 24.5833C36.875 20.5102 33.5731 17.2083 29.5 17.2083C25.4269 17.2083 22.125 20.5102 22.125 24.5833C22.125 28.6564 25.4269 31.9583 29.5 31.9583Z" fill="black"/>
<circle cx="29" cy="25" r="14" fill="black"/>
<g clip-path="url(#clip1_714_2)">
<path d="M39.7629 30.5247C39.922 30.6939 40.0073 30.9194 40.0002 31.1515C39.993 31.3836 39.894 31.6033 39.7248 31.7624C39.5556 31.9215 39.3302 32.0069 39.0981 31.9997C38.866 31.9926 38.6462 31.8935 38.4871 31.7244L33.6895 26.6152C32.783 26.6441 28.6084 26.7684 29.9165 24.7952C30.026 24.6839 30.1637 24.6044 30.3149 24.5653C30.4661 24.5261 30.6251 24.5288 30.7749 24.573C31.753 24.8764 32.7856 24.963 33.8006 24.8267C33.976 24.8043 34.1542 24.8243 34.3203 24.8852C34.4863 24.9462 34.6352 25.0461 34.7544 25.1767L39.7629 30.5247ZM32.125 23.25C32.6995 23.2508 33.2686 23.1382 33.7995 22.9187C34.3304 22.6992 34.8128 22.377 35.219 21.9707L39.7436 17.4452C39.825 17.364 39.8895 17.2675 39.9336 17.1613C39.9777 17.0552 40.0004 16.9413 40.0005 16.8264C40.0006 16.7114 39.978 16.5975 39.9341 16.4913C39.8902 16.385 39.8257 16.2885 39.7445 16.2071C39.6633 16.1258 39.5668 16.0612 39.4606 16.0171C39.3544 15.9731 39.2406 15.9503 39.1256 15.9503C39.0106 15.9502 38.8968 15.9727 38.7905 16.0167C38.6843 16.0606 38.5877 16.125 38.5064 16.2062L33.9817 20.7317C33.5975 21.1126 33.1049 21.3655 32.5714 21.4557C32.038 21.5459 31.4896 21.4691 31.0015 21.2357L37.1186 15.1186C37.2022 15.0379 37.2689 14.9413 37.3147 14.8346C37.3606 14.7278 37.3847 14.613 37.3857 14.4968C37.3867 14.3807 37.3646 14.2654 37.3206 14.1579C37.2766 14.0504 37.2116 13.9527 37.1295 13.8705C37.0473 13.7884 36.9496 13.7234 36.8421 13.6794C36.7345 13.6354 36.6193 13.6133 36.5031 13.6143C36.387 13.6153 36.2721 13.6394 36.1654 13.6853C36.0586 13.7311 35.9621 13.7978 35.8814 13.8814L29.7625 19.9985C29.5291 19.5104 29.4523 18.962 29.5425 18.4285C29.6327 17.8951 29.8856 17.4025 30.2665 17.0182L34.7937 12.4936C34.9531 12.3286 35.0413 12.1076 35.0393 11.8781C35.0373 11.6487 34.9453 11.4293 34.7831 11.267C34.6209 11.1048 34.4014 11.0128 34.172 11.0108C33.9426 11.0088 33.7215 11.097 33.5565 11.2564L29.031 15.781C28.3194 16.495 27.8756 17.4324 27.7744 18.4354C27.6732 19.4384 27.9208 20.4456 28.4754 21.2874L19.2564 30.5064C19.097 30.6714 19.0088 30.8924 19.0108 31.1218C19.0128 31.3513 19.1048 31.5707 19.267 31.733C19.4293 31.8952 19.6487 31.9872 19.8781 31.9892C20.1076 31.9912 20.3286 31.903 20.4936 31.7436L29.7126 22.5246C30.4282 22.9977 31.2671 23.2499 32.125 23.25ZM23.7705 22.3444C24.4959 23.0277 25.1652 22.1204 25.6526 21.6347C25.8542 21.4309 26.0027 21.1807 26.0849 20.9061C26.1671 20.6314 26.1807 20.3408 26.1242 20.0597C25.5844 18.553 26.9039 16.7942 25.8119 15.5824L21.9129 11.5014C21.6724 11.2677 21.3687 11.1096 21.0393 11.0465C20.71 10.9835 20.3694 11.0183 20.0596 11.1466C19.7498 11.2749 19.4843 11.4912 19.296 11.7687C19.1077 12.0461 19.0048 12.3727 19 12.708C19.2074 16.7452 20.6931 18.805 23.7705 22.3444Z" fill="white"/>
</g>
</g>
<defs>
<clipPath id="clip0_714_2">
<rect width="59" height="59" fill="white"/>
</clipPath>
<clipPath id="clip1_714_2">
<rect width="21" height="21" fill="white" transform="translate(19 11)"/>
</clipPath>
</defs>
</svg>
